STARTFONT 2.1
COMMENT $XConsortium: lubI14.bdf,v 1.9 94/04/02 16:24:58 gildea Exp $
COMMENT  (c) Copyright Bigelow & Holmes 1986, 1985. Lucida is a registered
COMMENT  trademark of Bigelow & Holmes. See LEGAL NOTICE file for terms 
COMMENT  of the license. 
COMMENT  
COMMENT  Translation to ISO8859-2 by Cub Soft;  Petr.Kolar@vslib.cz
COMMENT  
FONT -B&H-LucidaBright-Medium-I-Normal--20-140-100-100-P-113-ISO8859-2
SIZE 14 100 100
FONTBOUNDINGBOX 33 23 -10 -4
STARTPROPERTIES 20
COMMENT Begin LogicalFontDescription
FONTNAME_REGISTRY ""
FOUNDRY "B&H"
FAMILY_NAME "LucidaBright"
WEIGHT_NAME "Medium"
SLANT "I"
SETWIDTH_NAME "Normal"
ADD_STYLE_NAME ""
PIXEL_SIZE 20
POINT_SIZE 140
RESOLUTION_X 100
RESOLUTION_Y 100
SPACING "P"
AVERAGE_WIDTH 113
CHARSET_REGISTRY "ISO8859"
CHARSET_ENCODING "2"
COMMENT END LogicalFontDescription
FONT_ASCENT 18
FONT_DESCENT 5
DEFAULT_CHAR 0
COPYRIGHT "Copyright Bigelow & Holmes 1986, 1985., Copyright 1996 Cub Soft"
FACE_NAME "Lucida Bright Italic"
ENDPROPERTIES
CHARS 191
STARTCHAR space
ENCODING 32
SWIDTH 333 0
DWIDTH 6 0
BBX 1 1 0 0
BITMAP
00
ENDCHAR
STARTCHAR exclam
ENCODING 33
SWIDTH 265 0
DWIDTH 5 0
BBX 5 15 2 0
BITMAP
18
18
10
30
30
30
20
20
20
20
20
40
00
00
c0
ENDCHAR
STARTCHAR quotedbl
ENCODING 34
SWIDTH 377 0
DWIDTH 8 0
BBX 5 5 4 10
BITMAP
d8
d8
d8
48
48
ENDCHAR
STARTCHAR numbersign
ENCODING 35
SWIDTH 608 0
DWIDTH 12 0
BBX 12 15 2 0
BITMAP
0130
0220
0220
0640
0440
7ff0
0880
0880
1100
1100
ffe0
2200
2400
4400
c800
ENDCHAR
STARTCHAR dollar
ENCODING 36
SWIDTH 608 0
DWIDTH 12 0
BBX 9 18 3 -2
BITMAP
0200
1f80
3480
2480
6400
6400
3800
3800
0c00
1600
1300
1300
1300
9300
d600
f800
2000
2000
ENDCHAR
STARTCHAR percent
ENCODING 37
SWIDTH 759 0
DWIDTH 15 0
BBX 16 15 1 0
BITMAP
1e03
3304
6308
6310
4220
6640
3c80
0138
0264
06c4
0c86
1884
3084
60c8
c070
ENDCHAR
STARTCHAR ampersand
ENCODING 38
SWIDTH 727 0
DWIDTH 15 0
BBX 14 15 2 0
BITMAP
03c0
0640
0c60
0c40
0cc0
0d80
1e00
267c
4610
c330
c320
c1e0
c1c0
61c0
3ef0
ENDCHAR
STARTCHAR apostrophe
ENCODING 39
SWIDTH 265 0
DWIDTH 5 0
BBX 4 6 3 9
BITMAP
70
70
20
60
c0
80
ENDCHAR
STARTCHAR parenleft
ENCODING 40
SWIDTH 310 0
DWIDTH 6 0
BBX 7 19 2 -4
BITMAP
06
08
08
10
30
20
60
60
c0
c0
c0
c0
c0
c0
c0
40
40
40
20
ENDCHAR
STARTCHAR parenright
ENCODING 41
SWIDTH 310 0
DWIDTH 6 0
BBX 7 19 0 -4
BITMAP
08
08
04
04
04
04
04
06
04
0c
0c
0c
08
18
10
10
20
40
80
ENDCHAR
STARTCHAR asterisk
ENCODING 42
SWIDTH 458 0
DWIDTH 9 0
BBX 7 7 3 8
BITMAP
18
10
d6
2c
30
c8
48
ENDCHAR
STARTCHAR plus
ENCODING 43
SWIDTH 608 0
DWIDTH 12 0
BBX 12 13 1 0
BITMAP
0300
0200
0200
0200
0200
0200
fff0
0400
0400
0400
0400
0c00
0800
ENDCHAR
STARTCHAR comma
ENCODING 44
SWIDTH 265 0
DWIDTH 5 0
BBX 4 7 1 -4
BITMAP
70
70
70
20
20
60
c0
ENDCHAR
STARTCHAR minus
ENCODING 45
SWIDTH 608 0
DWIDTH 12 0
BBX 12 1 1 6
BITMAP
fff0
ENDCHAR
STARTCHAR period
ENCODING 46
SWIDTH 265 0
DWIDTH 5 0
BBX 3 2 1 0
BITMAP
e0
e0
ENDCHAR
STARTCHAR slash
ENCODING 47
SWIDTH 458 0
DWIDTH 9 0
BBX 13 19 0 -4
BITMAP
0018
0010
0020
0020
0040
00c0
0080
0100
0300
0200
0600
0400
0800
1800
1000
2000
2000
4000
c000
ENDCHAR
STARTCHAR zero
ENCODING 48
SWIDTH 608 0
DWIDTH 12 0
BBX 11 15 2 0
BITMAP
0780
18c0
30c0
3060
6060
6060
c060
c0c0
c0c0
c0c0
c0c0
c180
c100
6200
3c00
ENDCHAR
STARTCHAR one
ENCODING 49
SWIDTH 608 0
DWIDTH 12 0
BBX 8 15 2 0
BITMAP
1f
03
06
06
06
06
06
0c
0c
0c
0c
0c
18
18
ff
ENDCHAR
STARTCHAR two
ENCODING 50
SWIDTH 608 0
DWIDTH 12 0
BBX 11 15 2 0
BITMAP
0f80
18c0
1060
1060
0060
00c0
00c0
0180
0200
0c00
1000
2000
6000
c000
ff80
ENDCHAR
STARTCHAR three
ENCODING 51
SWIDTH 608 0
DWIDTH 12 0
BBX 10 15 2 0
BITMAP
1f80
10c0
10c0
00c0
00c0
0380
1e00
0300
0180
0180
0180
0180
8300
c700
fc00
ENDCHAR
STARTCHAR four
ENCODING 52
SWIDTH 608 0
DWIDTH 12 0
BBX 11 15 1 0
BITMAP
0060
00c0
01c0
02c0
04c0
08c0
1080
2180
4180
ffe0
0100
0100
0300
0300
0fc0
ENDCHAR
STARTCHAR five
ENCODING 53
SWIDTH 608 0
DWIDTH 12 0
BBX 11 15 2 0
BITMAP
1fe0
2000
2000
2000
2000
3e00
0300
0180
0180
0180
0180
0180
8300
c600
fc00
ENDCHAR
STARTCHAR six
ENCODING 54
SWIDTH 608 0
DWIDTH 12 0
BBX 11 15 2 0
BITMAP
07c0
0c60
1040
3000
6000
6f00
7180
e0c0
c0c0
c0c0
c0c0
c180
c180
6300
3c00
ENDCHAR
STARTCHAR seven
ENCODING 55
SWIDTH 608 0
DWIDTH 12 0
BBX 11 15 3 0
BITMAP
3fe0
0060
0040
0080
0100
0200
0400
0400
0800
1000
3000
6000
6000
e000
c000
ENDCHAR
STARTCHAR eight
ENCODING 56
SWIDTH 608 0
DWIDTH 12 0
BBX 11 15 2 0
BITMAP
0780
18c0
3060
3060
3040
39c0
1f00
1f00
6380
41c0
c0c0
c0c0
c180
6300
3e00
ENDCHAR
STARTCHAR nine
ENCODING 57
SWIDTH 608 0
DWIDTH 12 0
BBX 11 15 2 0
BITMAP
0780
18c0
30c0
3060
6060
6060
6060
60c0
31c0
1ec0
0180
0180
8300
c600
fc00
ENDCHAR
STARTCHAR colon
ENCODING 58
SWIDTH 265 0
DWIDTH 5 0
BBX 5 11 1 0
BITMAP
38
38
00
00
00
00
00
00
00
e0
e0
ENDCHAR
STARTCHAR semicolon
ENCODING 59
SWIDTH 265 0
DWIDTH 5 0
BBX 5 15 1 -4
BITMAP
38
38
00
00
00
00
00
00
00
60
60
60
60
40
c0
ENDCHAR
STARTCHAR less
ENCODING 60
SWIDTH 608 0
DWIDTH 12 0
BBX 13 13 1 0
BITMAP
0008
0030
00c0
0300
0c00
3000
c000
3000
1c00
0600
0180
00c0
0020
ENDCHAR
STARTCHAR equal
ENCODING 61
SWIDTH 608 0
DWIDTH 12 0
BBX 12 6 1 3
BITMAP
7ff0
0000
0000
0000
0000
ffe0
ENDCHAR
STARTCHAR greater
ENCODING 62
SWIDTH 608 0
DWIDTH 12 0
BBX 13 13 0 0
BITMAP
2000
1800
0c00
0300
01c0
0060
0018
0060
0180
0600
1800
6000
8000
ENDCHAR
STARTCHAR question
ENCODING 63
SWIDTH 471 0
DWIDTH 9 0
BBX 8 15 3 0
BITMAP
3c
47
c3
83
07
06
0c
10
20
60
60
00
00
00
c0
ENDCHAR
STARTCHAR at
ENCODING 64
SWIDTH 861 0
DWIDTH 17 0
BBX 16 15 2 0
BITMAP
03f0
0c0c
1006
21f2
4221
4421
8861
8861
88e2
88c2
8944
8e78
4000
3040
0f80
ENDCHAR
STARTCHAR A
ENCODING 65
SWIDTH 747 0
DWIDTH 15 0
BBX 15 15 0 0
BITMAP
0020
0060
00e0
00f0
0130
0330
0230
0430
0438
0ff8
1018
1018
2018
601c
f07e
ENDCHAR
STARTCHAR B
ENCODING 66
SWIDTH 606 0
DWIDTH 12 0
BBX 12 15 1 0
BITMAP
1fe0
0c70
0c30
0c30
0c30
0860
18c0
1f00
18c0
1860
1860
3060
3060
31c0
ff80
ENDCHAR
STARTCHAR C
ENCODING 67
SWIDTH 714 0
DWIDTH 14 0
BBX 13 15 2 0
BITMAP
03f8
0c18
1818
3018
6000
6000
6000
c000
c000
c000
c000
c000
6000
7060
1f80
ENDCHAR
STARTCHAR D
ENCODING 68
SWIDTH 770 0
DWIDTH 15 0
BBX 16 15 0 0
BITMAP
1ff8
0e1e
0c06
0c07
0c03
0c03
0c03
1803
1807
1806
180e
380c
3018
3070
ffc0
ENDCHAR
STARTCHAR E
ENCODING 69
SWIDTH 569 0
DWIDTH 11 0
BBX 13 15 0 0
BITMAP
1ff8
0608
0c18
0c00
0c00
0c00
0c20
1fc0
1840
1800
1800
1800
3020
3060
ffe0
ENDCHAR
STARTCHAR F
ENCODING 70
SWIDTH 551 0
DWIDTH 11 0
BBX 13 15 0 0
BITMAP
1ff8
0608
0c18
0c00
0c00
0c00
0c20
1fc0
1840
1800
1800
1800
3000
3000
fc00
ENDCHAR
STARTCHAR G
ENCODING 71
SWIDTH 756 0
DWIDTH 15 0
BBX 14 15 2 0
BITMAP
03fc
0e08
1808
3000
7000
6000
6000
c000
c0fc
c030
c030
e060
6060
7060
1f80
ENDCHAR
STARTCHAR H
ENCODING 72
SWIDTH 776 0
DWIDTH 16 0
BBX 17 15 1 0
BITMAP
1f1f80
0e0600
0c0600
0c0600
0c0e00
0c0c00
180c00
1ffc00
180c00
181c00
181800
301800
301800
303800
fc7c00
ENDCHAR
STARTCHAR I
ENCODING 73
SWIDTH 325 0
DWIDTH 7 0
BBX 9 15 0 0
BITMAP
1f80
0600
0600
0c00
0c00
0c00
0c00
1c00
1800
1800
1800
1800
3000
3000
fc00
ENDCHAR
STARTCHAR J
ENCODING 74
SWIDTH 422 0
DWIDTH 8 0
BBX 11 19 0 -4
BITMAP
07e0
0180
0180
0180
0380
0300
0300
0300
0300
0300
0700
0600
0600
0600
0600
0400
cc00
c800
f000
ENDCHAR
STARTCHAR K
ENCODING 75
SWIDTH 698 0
DWIDTH 14 0
BBX 15 15 1 0
BITMAP
1f1e
0e0c
0c10
0c20
0cc0
0d80
1b00
1f00
1b00
1980
19c0
30c0
3060
3070
fcf8
ENDCHAR
STARTCHAR L
ENCODING 76
SWIDTH 572 0
DWIDTH 11 0
BBX 11 15 1 0
BITMAP
1f00
0e00
0c00
0c00
0c00
0c00
1800
1800
1800
1800
1800
3000
3020
3060
ffe0
ENDCHAR
STARTCHAR M
ENCODING 77
SWIDTH 865 0
DWIDTH 17 0
BBX 19 15 1 0
BITMAP
1e01e0
0e0380
0e0380
0e0580
0b0f00
0b0b00
131300
131300
112300
11e200
11c600
318600
208600
200e00
f81f00
ENDCHAR
STARTCHAR N
ENCODING 78
SWIDTH 762 0
DWIDTH 15 0
BBX 17 15 0 0
BITMAP
1c0780
0e0300
0e0200
0f0200
0b0200
098400
118400
10c400
10c400
106400
107400
203800
203800
201800
f80800
ENDCHAR
STARTCHAR O
ENCODING 79
SWIDTH 783 0
DWIDTH 16 0
BBX 14 15 2 0
BITMAP
03e0
0c38
1818
300c
600c
600c
600c
c00c
c00c
c018
c018
c030
6060
70c0
1f00
ENDCHAR
STARTCHAR P
ENCODING 80
SWIDTH 579 0
DWIDTH 12 0
BBX 13 15 0 0
BITMAP
1ff0
0e38
0c18
0c18
0c18
0c30
0c30
18e0
1f80
1800
1800
3800
3000
3000
fc00
ENDCHAR
STARTCHAR Q
ENCODING 81
SWIDTH 788 0
DWIDTH 16 0
BBX 16 19 2 -4
BITMAP
03e0
0c38
1818
300c
600c
600c
600c
c00c
c01c
c018
c018
c030
6070
70e0
1fc0
0100
0080
00c0
003f
ENDCHAR
STARTCHAR R
ENCODING 82
SWIDTH 686 0
DWIDTH 14 0
BBX 13 15 1 0
BITMAP
1ff0
0c70
0c30
0c38
0c30
1c20
18c0
1f80
1980
19c0
18c0
30c0
3060
3070
fc38
ENDCHAR
STARTCHAR S
ENCODING 83
SWIDTH 549 0
DWIDTH 11 0
BBX 11 15 1 0
BITMAP
07c0
1860
1820
3020
3800
1800
1c00
0700
0380
0180
0180
c180
8180
c300
7e00
ENDCHAR
STARTCHAR T
ENCODING 84
SWIDTH 663 0
DWIDTH 13 0
BBX 13 15 3 0
BITMAP
fff8
c708
8618
0600
0600
0600
0e00
0c00
0c00
0c00
0c00
1c00
1800
1800
7e00
ENDCHAR
STARTCHAR U
ENCODING 85
SWIDTH 727 0
DWIDTH 15 0
BBX 14 15 3 0
BITMAP
fc7c
3010
3010
6010
6020
6020
6020
6020
c020
c040
c040
c040
c080
6180
3e00
ENDCHAR
STARTCHAR V
ENCODING 86
SWIDTH 656 0
DWIDTH 13 0
BBX 14 15 2 0
BITMAP
f83c
6008
6010
3030
3020
3040
3040
3080
1980
1900
1a00
1a00
1c00
1c00
0800
ENDCHAR
STARTCHAR W
ENCODING 87
SWIDTH 878 0
DWIDTH 18 0
BBX 18 15 3 0
BITMAP
f843c0
60c180
60c100
61c300
61c200
62c600
22c400
244c00
344800
3c7800
387000
387000
306000
306000
204000
ENDCHAR
STARTCHAR X
ENCODING 88
SWIDTH 624 0
DWIDTH 12 0
BBX 16 15 0 0
BITMAP
1f8f
0606
0608
0318
0330
01e0
01c0
01c0
01c0
02e0
0460
0860
1030
2030
f0fc
ENDCHAR
STARTCHAR Y
ENCODING 89
SWIDTH 663 0
DWIDTH 13 0
BBX 13 15 3 0
BITMAP
f878
7030
3020
3040
3880
1900
1b00
0e00
0c00
0c00
0c00
1800
1800
1800
7e00
ENDCHAR
STARTCHAR Z
ENCODING 90
SWIDTH 633 0
DWIDTH 13 0
BBX 13 15 1 0
BITMAP
1ff8
1030
1070
0060
00c0
0180
0300
0700
0600
0c00
1800
3800
7020
6060
ffe0
ENDCHAR
STARTCHAR bracketleft
ENCODING 91
SWIDTH 310 0
DWIDTH 6 0
BBX 8 19 1 -4
BITMAP
0f
08
18
18
18
18
10
30
30
30
30
20
60
60
60
40
40
c0
f0
ENDCHAR
STARTCHAR backslash
ENCODING 92
SWIDTH 458 0
DWIDTH 9 0
BBX 5 19 3 -4
BITMAP
80
80
c0
40
40
40
40
60
20
20
20
20
10
10
10
10
18
08
08
ENDCHAR
STARTCHAR bracketright
ENCODING 93
SWIDTH 310 0
DWIDTH 6 0
BBX 7 19 1 -4
BITMAP
1e
06
06
04
04
0c
0c
0c
0c
08
08
18
18
18
10
10
30
30
f0
ENDCHAR
STARTCHAR asciicircum
ENCODING 94
SWIDTH 608 0
DWIDTH 12 0
BBX 12 13 1 2
BITMAP
0080
0180
0180
0280
0280
0440
0840
0840
1020
3020
2020
4020
c010
ENDCHAR
STARTCHAR underscore
ENCODING 95
SWIDTH 500 0
DWIDTH 10 0
BBX 8 1 1 -2
BITMAP
ff
ENDCHAR
STARTCHAR grave
ENCODING 96
SWIDTH 560 0
DWIDTH 11 0
BBX 4 3 6 12
BITMAP
e0
20
10
ENDCHAR
STARTCHAR a
ENCODING 97
SWIDTH 608 0
DWIDTH 12 0
BBX 11 11 1 0
BITMAP
07e0
0860
1060
20c0
60c0
60c0
c1c0
c2c0
c580
cd80
71e0
ENDCHAR
STARTCHAR b
ENCODING 98
SWIDTH 596 0
DWIDTH 12 0
BBX 11 15 2 0
BITMAP
7800
1800
1800
1000
31c0
3660
3c60
2860
7060
6040
60c0
6080
4180
e300
fc00
ENDCHAR
STARTCHAR c
ENCODING 99
SWIDTH 487 0
DWIDTH 10 0
BBX 9 11 2 0
BITMAP
0f80
1180
2080
6000
4000
c000
c000
c000
c000
6300
3c00
ENDCHAR
STARTCHAR d
ENCODING 100
SWIDTH 608 0
DWIDTH 12 0
BBX 12 15 1 0
BITMAP
00f0
0030
0060
0060
07e0
0860
1060
20c0
60c0
60c0
c1c0
c2c0
c580
cd80
71e0
ENDCHAR
STARTCHAR e
ENCODING 101
SWIDTH 518 0
DWIDTH 10 0
BBX 9 11 2 0
BITMAP
0f00
1180
2180
6100
4300
c600
f800
c000
c180
6300
3c00
ENDCHAR
STARTCHAR f
ENCODING 102
SWIDTH 380 0
DWIDTH 8 0
BBX 10 20 1 -4
BITMAP
03c0
0440
0cc0
0800
1800
7f00
1800
3000
3000
3000
3000
3000
6000
6000
6000
6000
6000
c000
c000
c000
ENDCHAR
STARTCHAR g
ENCODING 103
SWIDTH 602 0
DWIDTH 12 0
BBX 11 15 1 -4
BITMAP
07e0
0860
1060
3040
30c0
60c0
61c0
61c0
6280
6580
3980
0180
8100
c200
7c00
ENDCHAR
STARTCHAR h
ENCODING 104
SWIDTH 631 0
DWIDTH 13 0
BBX 11 15 2 0
BITMAP
7800
1800
1800
3000
31c0
3260
3460
2840
70c0
60c0
60c0
60c0
4080
c180
c1e0
ENDCHAR
STARTCHAR i
ENCODING 105
SWIDTH 289 0
DWIDTH 6 0
BBX 5 15 2 0
BITMAP
18
00
00
00
f0
30
30
20
60
60
60
60
40
c0
f0
ENDCHAR
STARTCHAR j
ENCODING 106
SWIDTH 343 0
DWIDTH 7 0
BBX 10 19 -1 -4
BITMAP
00c0
0000
0000
0000
0780
0180
0180
0180
0300
0300
0300
0300
0300
0600
0600
0600
8400
8800
f000
ENDCHAR
STARTCHAR k
ENCODING 107
SWIDTH 560 0
DWIDTH 11 0
BBX 10 15 2 0
BITMAP
7800
1800
1000
3000
30c0
3080
3180
2600
6800
7800
6c00
6e00
4600
c300
c3c0
ENDCHAR
STARTCHAR l
ENCODING 108
SWIDTH 289 0
DWIDTH 6 0
BBX 5 15 2 0
BITMAP
78
18
10
30
30
30
30
20
60
60
60
60
40
c0
f0
ENDCHAR
STARTCHAR m
ENCODING 109
SWIDTH 944 0
DWIDTH 19 0
BBX 17 11 2 0
BITMAP
f1c700
36c980
3cd180
78f180
70e300
60c300
618300
618300
c18200
c18600
c18780
ENDCHAR
STARTCHAR n
ENCODING 110
SWIDTH 631 0
DWIDTH 13 0
BBX 11 11 2 0
BITMAP
f1c0
3260
3460
2840
70c0
60c0
60c0
60c0
4080
c180
c1e0
ENDCHAR
STARTCHAR o
ENCODING 111
SWIDTH 560 0
DWIDTH 11 0
BBX 10 11 2 0
BITMAP
0f00
1980
30c0
60c0
60c0
c0c0
c180
c180
c300
e600
7c00
ENDCHAR
STARTCHAR p
ENCODING 112
SWIDTH 608 0
DWIDTH 12 0
BBX 11 15 2 -4
BITMAP
79c0
3260
3460
3860
3860
3040
20c0
6080
6180
6100
7e00
4000
c000
c000
c000
ENDCHAR
STARTCHAR q
ENCODING 113
SWIDTH 599 0
DWIDTH 12 0
BBX 11 15 1 -4
BITMAP
07e0
0860
1060
20c0
60c0
60c0
c1c0
c2c0
c580
cd80
7180
0180
0180
0300
0300
ENDCHAR
STARTCHAR r
ENCODING 114
SWIDTH 470 0
DWIDTH 9 0
BBX 9 11 2 0
BITMAP
f180
3700
3c00
6800
7000
6000
6000
6000
c000
c000
c000
ENDCHAR
STARTCHAR s
ENCODING 115
SWIDTH 440 0
DWIDTH 9 0
BBX 9 11 1 0
BITMAP
0f00
1880
3080
3000
1800
0e00
0600
8300
8300
c700
7c00
ENDCHAR
STARTCHAR t
ENCODING 116
SWIDTH 355 0
DWIDTH 7 0
BBX 6 14 2 0
BITMAP
30
30
30
fc
60
60
60
60
60
c0
c0
c0
c0
70
ENDCHAR
STARTCHAR u
ENCODING 117
SWIDTH 630 0
DWIDTH 13 0
BBX 11 11 2 0
BITMAP
f1e0
3060
2060
60c0
60c0
60c0
61c0
42c0
c780
cd80
71e0
ENDCHAR
STARTCHAR v
ENCODING 118
SWIDTH 558 0
DWIDTH 11 0
BBX 11 11 1 0
BITMAP
f060
3020
3060
1860
1840
1880
1900
0b00
0e00
0c00
0800
ENDCHAR
STARTCHAR w
ENCODING 119
SWIDTH 805 0
DWIDTH 16 0
BBX 16 11 1 0
BITMAP
e087
30c3
31c2
31c6
13c4
1a4c
1e68
1c70
1c70
1860
1040
ENDCHAR
STARTCHAR x
ENCODING 120
SWIDTH 510 0
DWIDTH 10 0
BBX 10 11 1 0
BITMAP
70c0
38c0
1880
1900
0e00
0c00
1600
2600
4300
c380
c1c0
ENDCHAR
STARTCHAR y
ENCODING 121
SWIDTH 558 0
DWIDTH 11 0
BBX 13 15 0 -4
BITMAP
7830
1818
1810
0c20
0c20
0c40
0c80
0500
0500
0600
0400
0800
1000
3000
e000
ENDCHAR
STARTCHAR z
ENCODING 122
SWIDTH 536 0
DWIDTH 11 0
BBX 10 11 1 0
BITMAP
3fc0
2180
2300
0300
0600
0c00
1800
3000
6080
6180
ff80
ENDCHAR
STARTCHAR braceleft
ENCODING 123
SWIDTH 337 0
DWIDTH 7 0
BBX 7 19 2 -4
BITMAP
0e
18
18
18
18
10
10
10
20
c0
60
20
60
60
40
c0
c0
c0
60
ENDCHAR
STARTCHAR bar
ENCODING 124
SWIDTH 241 0
DWIDTH 5 0
BBX 5 19 1 -4
BITMAP
08
18
18
10
10
10
30
30
20
20
20
60
60
40
40
40
c0
c0
80
ENDCHAR
STARTCHAR braceright
ENCODING 125
SWIDTH 337 0
DWIDTH 7 0
BBX 7 19 2 -4
BITMAP
0c
06
06
06
0c
0c
0c
08
08
06
08
10
10
30
30
30
30
20
c0
ENDCHAR
STARTCHAR asciitilde
ENCODING 126
SWIDTH 608 0
DWIDTH 12 0
BBX 12 6 1 3
BITMAP
3810
4c10
8610
8610
8320
81c0
ENDCHAR
STARTCHAR nobreakspace
ENCODING 160
SWIDTH 333 0
DWIDTH 6 0
BBX 1 1 0 0
BITMAP
00
ENDCHAR
STARTCHAR Aogonek
ENCODING 161
SWIDTH 747 0
DWIDTH 15 0
BBX 15 18 0 -3
BITMAP
0020
0060
00e0
00f0
0130
0330
0230
0430
0438
0ff8
1018
1018
2018
601c
f07e
0180
0200
0380
ENDCHAR
STARTCHAR breve
ENCODING 162
SWIDTH 560 0
DWIDTH 11 0
BBX 7 3 5 12
BITMAP
82
cc
78
ENDCHAR
STARTCHAR Lstroke
ENCODING 163
SWIDTH 572 0
DWIDTH 11 0
BBX 11 15 0 0
BITMAP
1f80
0e00
0c00
0c00
0c00
0d00
1e00
1800
7800
5800
1800
3800
3020
3060
ffe0
ENDCHAR
STARTCHAR currency
ENCODING 164
SWIDTH 608 0
DWIDTH 12 0
BBX 14 13 1 1
BITMAP
2008
101c
0fb0
0c60
1020
1020
2020
2020
1040
10c0
2f40
4020
8030
ENDCHAR
STARTCHAR Lcaron
ENCODING 165
SWIDTH 668 0
DWIDTH 13 0
BBX 13 17 1 0
BITMAP
0038
0038
1f10
0e30
0c60
0c40
0c00
0c00
1800
1800
1800
1800
1800
3000
3020
3060
ffe0
ENDCHAR
STARTCHAR Sacute
ENCODING 166
SWIDTH 549 0
DWIDTH 11 0
BBX 12 19 1 0
BITMAP
0070
00c0
0180
0000
07c0
1860
1820
3020
3800
1800
1c00
0700
0380
0180
0180
c180
8180
c300
7e00
ENDCHAR
STARTCHAR section
ENCODING 167
SWIDTH 608 0
DWIDTH 12 0
BBX 11 19 2 -4
BITMAP
07e0
1860
3040
3000
3000
1800
1e00
2780
6180
6080
7080
3d80
1f00
0300
0180
0180
8300
c700
7c00
ENDCHAR
STARTCHAR diaeresis
ENCODING 168
SWIDTH 560 0
DWIDTH 11 0
BBX 6 1 6 14
BITMAP
cc
ENDCHAR
STARTCHAR Scaron
ENCODING 169
SWIDTH 549 0
DWIDTH 11 0
BBX 11 19 1 0
BITMAP
0420
02c0
0380
0000
07c0
1860
1820
3020
3800
1800
1c00
0700
0380
0180
0180
c180
8180
c300
7e00
ENDCHAR
STARTCHAR Scedilla
ENCODING 170
SWIDTH 549 0
DWIDTH 11 0
BBX 11 20 1 -5
BITMAP
07c0
1860
1820
3020
3800
1800
1c00
0700
0380
0180
0180
c180
8180
c300
7e00
0600
0400
0200
0200
0c00
ENDCHAR
STARTCHAR Tcaron
ENCODING 171
SWIDTH 663 0
DWIDTH 13 0
BBX 13 19 3 0
BITMAP
0840
0580
0700
0000
fff8
c708
8618
0600
0600
0600
0e00
0c00
0c00
0c00
0c00
1c00
1800
1800
7e00
ENDCHAR
STARTCHAR Zacute
ENCODING 172
SWIDTH 633 0
DWIDTH 13 0
BBX 13 19 1 0
BITMAP
0038
0060
00c0
0000
1ff8
1030
1070
0060
00c0
0180
0300
0700
0600
0c00
1800
3800
7020
6060
ffe0
ENDCHAR
STARTCHAR hyphen
ENCODING 173
SWIDTH 313 0
DWIDTH 6 0
BBX 5 1 2 7
BITMAP
f8
ENDCHAR
STARTCHAR Zcaron
ENCODING 174
SWIDTH 633 0
DWIDTH 13 0
BBX 13 19 1 0
BITMAP
0210
0160
01c0
0000
1ff8
1030
1070
0060
00c0
0180
0300
0700
0600
0c00
1800
3800
7020
6060
ffe0
ENDCHAR
STARTCHAR Zabovedot
ENCODING 175
SWIDTH 633 0
DWIDTH 13 0
BBX 13 17 1 0
BITMAP
00c0
0000
1ff8
1030
1070
0060
00c0
0180
0300
0700
0600
0c00
1800
3800
7020
6060
ffe0
ENDCHAR
STARTCHAR degree
ENCODING 176
SWIDTH 277 0
DWIDTH 6 0
BBX 3 4 4 11
BITMAP
60
a0
a0
60
ENDCHAR
STARTCHAR aogonek
ENCODING 177
SWIDTH 608 0
DWIDTH 12 0
BBX 11 14 1 -3
BITMAP
07e0
0860
1060
20c0
60c0
60c0
c1c0
c2c0
c580
cd80
71e0
0600
0800
0e00
ENDCHAR
STARTCHAR ogonek
ENCODING 178
SWIDTH 560 0
DWIDTH 11 0
BBX 3 3 3 -4
BITMAP
60
80
e0
ENDCHAR
STARTCHAR lstroke
ENCODING 179
SWIDTH 289 0
DWIDTH 6 0
BBX 7 15 1 0
BITMAP
3c
0c
0c
18
18
18
1e
38
f0
30
30
30
60
60
78
ENDCHAR
STARTCHAR acute
ENCODING 180
SWIDTH 560 0
DWIDTH 11 0
BBX 5 3 7 12
BITMAP
38
60
c0
ENDCHAR
STARTCHAR lcaron
ENCODING 181
SWIDTH 565 0
DWIDTH 11 0
BBX 10 17 2 0
BITMAP
01c0
01c0
7880
1980
1300
3200
3000
3000
3000
2000
6000
6000
6000
6000
4000
c000
f000
ENDCHAR
STARTCHAR sacute
ENCODING 182
SWIDTH 440 0
DWIDTH 9 0
BBX 11 15 1 0
BITMAP
00e0
0180
0300
0000
0f00
1880
3080
3000
1800
0e00
0600
8300
8300
c700
7c00
ENDCHAR
STARTCHAR caron
ENCODING 183
SWIDTH 560 0
DWIDTH 11 0
BBX 6 3 6 12
BITMAP
84
58
70
ENDCHAR
STARTCHAR cedilla
ENCODING 184
SWIDTH 560 0
DWIDTH 11 0
BBX 3 5 3 -4
BITMAP
60
40
20
20
c0
ENDCHAR
STARTCHAR scaron
ENCODING 185
SWIDTH 440 0
DWIDTH 9 0
BBX 10 15 1 0
BITMAP
0840
0580
0700
0000
0f00
1880
3080
3000
1800
0e00
0600
8300
8300
c700
7c00
ENDCHAR
STARTCHAR scedilla
ENCODING 186
SWIDTH 440 0
DWIDTH 9 0
BBX 9 16 1 -5
BITMAP
0f00
1880
3080
3000
1800
0e00
0600
8300
8300
c700
7c00
0c00
0800
0400
0400
1800
ENDCHAR
STARTCHAR tcaron
ENCODING 187
SWIDTH 514 0
DWIDTH 10 0
BBX 9 18 2 0
BITMAP
0380
0380
0100
0300
3600
3400
3000
fc00
6000
6000
6000
6000
6000
c000
c000
c000
c000
7000
ENDCHAR
STARTCHAR zacute
ENCODING 188
SWIDTH 536 0
DWIDTH 11 0
BBX 11 15 1 0
BITMAP
00e0
0180
0300
0000
3fc0
2180
2300
0300
0600
0c00
1800
3000
6080
6180
ff80
ENDCHAR
STARTCHAR doubleacute
ENCODING 189
SWIDTH 560 0
DWIDTH 11 0
BBX 7 3 6 12
BITMAP
3e
68
b0
ENDCHAR
STARTCHAR zcaron
ENCODING 190
SWIDTH 536 0
DWIDTH 11 0
BBX 10 15 1 0
BITMAP
0840
0580
0700
0000
3fc0
2180
2300
0300
0600
0c00
1800
3000
6080
6180
ff80
ENDCHAR
STARTCHAR zabovedot
ENCODING 191
SWIDTH 536 0
DWIDTH 11 0
BBX 10 13 1 0
BITMAP
0300
0000
3fc0
2180
2300
0300
0600
0c00
1800
3000
6080
6180
ff80
ENDCHAR
STARTCHAR Racute
ENCODING 192
SWIDTH 686 0
DWIDTH 14 0
BBX 13 19 1 0
BITMAP
0070
00c0
0180
0000
1ff0
0c70
0c30
0c38
0c30
1c20
18c0
1f80
1980
19c0
18c0
30c0
3060
3070
fc38
ENDCHAR
STARTCHAR Aacute
ENCODING 193
SWIDTH 747 0
DWIDTH 15 0
BBX 15 19 0 0
BITMAP
001c
0030
0060
0000
0020
0060
00e0
00f0
0130
0330
0230
0430
0438
0ff8
1018
1018
2018
601c
f07e
ENDCHAR
STARTCHAR Acircumflex
ENCODING 194
SWIDTH 747 0
DWIDTH 15 0
BBX 15 19 0 0
BITMAP
0038
0068
0084
0000
0020
0060
00e0
00f0
0130
0330
0230
0430
0438
0ff8
1018
1018
2018
601c
f07e
ENDCHAR
STARTCHAR Abreve
ENCODING 195
SWIDTH 747 0
DWIDTH 15 0
BBX 15 19 0 0
BITMAP
0104
0198
00f0
0000
0020
0060
00e0
00f0
0130
0330
0230
0430
0438
0ff8
1018
1018
2018
601c
f07e
ENDCHAR
STARTCHAR Adiaeresis
ENCODING 196
SWIDTH 747 0
DWIDTH 15 0
BBX 15 17 0 0
BITMAP
00cc
0000
0020
0060
00e0
00f0
0130
0330
0230
0430
0438
0ff8
1018
1018
2018
601c
f07e
ENDCHAR
STARTCHAR Lacute
ENCODING 197
SWIDTH 572 0
DWIDTH 11 0
BBX 11 19 1 0
BITMAP
01c0
0300
0600
0000
1f00
0e00
0c00
0c00
0c00
0c00
1800
1800
1800
1800
1800
3000
3020
3060
ffe0
ENDCHAR
STARTCHAR Cacute
ENCODING 198
SWIDTH 714 0
DWIDTH 14 0
BBX 13 19 2 0
BITMAP
0038
0060
00c0
0000
03f8
0c18
1818
3018
6000
6000
6000
c000
c000
c000
c000
c000
6000
7060
1f80
ENDCHAR
STARTCHAR Ccedilla
ENCODING 199
SWIDTH 714 0
DWIDTH 14 0
BBX 13 19 2 -4
BITMAP
03f8
0c18
1818
3018
6000
6000
6000
c000
c000
c000
c000
c000
6000
7060
1f80
0800
0400
0400
1800
ENDCHAR
STARTCHAR Ccaron
ENCODING 200
SWIDTH 714 0
DWIDTH 14 0
BBX 13 19 2 0
BITMAP
0210
0160
01c0
0000
03f8
0c18
1818
3018
6000
6000
6000
c000
c000
c000
c000
c000
6000
7060
1f80
ENDCHAR
STARTCHAR Eacute
ENCODING 201
SWIDTH 569 0
DWIDTH 11 0
BBX 13 19 0 0
BITMAP
0070
00c0
0180
0000
1ff8
0608
0c18
0c00
0c00
0c00
0c20
1fc0
1840
1800
1800
1800
3020
3060
ffe0
ENDCHAR
STARTCHAR Eogonek
ENCODING 202
SWIDTH 569 0
DWIDTH 11 0
BBX 13 18 0 -3
BITMAP
1ff8
0608
0c18
0c00
0c00
0c00
0c20
1fc0
1840
1800
1800
1800
3020
3060
ffe0
0300
0400
0700
ENDCHAR
STARTCHAR Ediaeresis
ENCODING 203
SWIDTH 569 0
DWIDTH 11 0
BBX 13 17 0 0
BITMAP
0330
0000
1ff8
0608
0c18
0c00
0c00
0c00
0c20
1fc0
1840
1800
1800
1800
3020
3060
ffe0
ENDCHAR
STARTCHAR Ecaron
ENCODING 204
SWIDTH 569 0
DWIDTH 11 0
BBX 13 19 0 0
BITMAP
0210
0160
01c0
0000
1ff8
0608
0c18
0c00
0c00
0c00
0c20
1fc0
1840
1800
1800
1800
3020
3060
ffe0
ENDCHAR
STARTCHAR Iacute
ENCODING 205
SWIDTH 325 0
DWIDTH 7 0
BBX 10 19 0 0
BITMAP
01c0
0300
0600
0000
1f80
0600
0600
0c00
0c00
0c00
0c00
1c00
1800
1800
1800
1800
3000
3000
fc00
ENDCHAR
STARTCHAR Icircumflex
ENCODING 206
SWIDTH 325 0
DWIDTH 7 0
BBX 9 19 0 0
BITMAP
0700
0d00
1080
0000
1f80
0600
0600
0c00
0c00
0c00
0c00
1c00
1800
1800
1800
1800
3000
3000
fc00
ENDCHAR
STARTCHAR Dcaron
ENCODING 207
SWIDTH 770 0
DWIDTH 15 0
BBX 16 19 0 0
BITMAP
0108
00b0
00e0
0000
1ff8
0e1e
0c06
0c07
0c03
0c03
0c03
1803
1807
1806
180e
380c
3018
3070
ffc0
ENDCHAR
STARTCHAR Dstroke
ENCODING 208
SWIDTH 770 0
DWIDTH 15 0
BBX 16 15 0 0
BITMAP
1ff8
0e1e
0c06
0c07
0c03
0c03
0c03
7f83
1807
1806
180e
180c
3018
3070
ffc0
ENDCHAR
STARTCHAR Nacute
ENCODING 209
SWIDTH 762 0
DWIDTH 15 0
BBX 17 19 0 0
BITMAP
000e00
001800
003000
000000
1c0780
0e0300
0e0200
0f0200
0b0200
098400
118400
10c400
10c400
106400
107400
203800
203800
201800
f80800
ENDCHAR
STARTCHAR Ncaron
ENCODING 210
SWIDTH 762 0
DWIDTH 15 0
BBX 17 19 0 0
BITMAP
008400
005800
007000
000000
1c0780
0e0300
0e0200
0f0200
0b0200
098400
118400
10c400
10c400
106400
107400
203800
203800
201800
f80800
ENDCHAR
STARTCHAR Oacute
ENCODING 211
SWIDTH 783 0
DWIDTH 16 0
BBX 14 19 2 0
BITMAP
0070
00c0
0180
0000
03e0
0c38
1818
300c
600c
600c
600c
c00c
c00c
c018
c018
c030
6060
70c0
1f00
ENDCHAR
STARTCHAR Ocircumflex
ENCODING 212
SWIDTH 783 0
DWIDTH 16 0
BBX 14 19 2 0
BITMAP
00e0
01a0
0210
0000
03e0
0c38
1818
300c
600c
600c
600c
c00c
c00c
c018
c018
c030
6060
70c0
1f00
ENDCHAR
STARTCHAR Odoubleacute
ENCODING 213
SWIDTH 783 0
DWIDTH 16 0
BBX 14 19 2 0
BITMAP
007c
00d0
0160
0000
03e0
0c38
1818
300c
600c
600c
600c
c00c
c00c
c018
c018
c030
6060
70c0
1f00
ENDCHAR
STARTCHAR Odiaeresis
ENCODING 214
SWIDTH 783 0
DWIDTH 16 0
BBX 14 17 2 0
BITMAP
0330
0000
03e0
0c38
1818
300c
600c
600c
600c
c00c
c00c
c018
c018
c030
6060
70c0
1f00
ENDCHAR
STARTCHAR multiply
ENCODING 215
SWIDTH 608 0
DWIDTH 12 0
BBX 14 13 0 0
BITMAP
2004
1008
1810
0820
0440
0380
0300
0700
0c80
1040
2060
4020
8010
ENDCHAR
STARTCHAR Rcaron
ENCODING 216
SWIDTH 686 0
DWIDTH 14 0
BBX 13 19 1 0
BITMAP
0420
02c0
0380
0000
1ff0
0c70
0c30
0c38
0c30
1c20
18c0
1f80
1980
19c0
18c0
30c0
3060
3070
fc38
ENDCHAR
STARTCHAR Uring
ENCODING 217
SWIDTH 727 0
DWIDTH 15 0
BBX 14 19 3 0
BITMAP
0380
0280
0380
0000
fc7c
3010
3010
6010
6020
6020
6020
6020
c020
c040
c040
c040
c080
6180
3e00
ENDCHAR
STARTCHAR Uacute
ENCODING 218
SWIDTH 727 0
DWIDTH 15 0
BBX 14 19 3 0
BITMAP
00e0
0180
0300
0000
fc7c
3010
3010
6010
6020
6020
6020
6020
c020
c040
c040
c040
c080
6180
3e00
ENDCHAR
STARTCHAR Udoubleacute
ENCODING 219
SWIDTH 727 0
DWIDTH 15 0
BBX 14 19 3 0
BITMAP
00f8
01a0
02c0
0000
fc7c
3010
3010
6010
6020
6020
6020
6020
c020
c040
c040
c040
c080
6180
3e00
ENDCHAR
STARTCHAR Udiaeresis
ENCODING 220
SWIDTH 727 0
DWIDTH 15 0
BBX 14 17 3 0
BITMAP
0660
0000
fc7c
3010
3010
6010
6020
6020
6020
6020
c020
c040
c040
c040
c080
6180
3e00
ENDCHAR
STARTCHAR Yacute
ENCODING 221
SWIDTH 663 0
DWIDTH 13 0
BBX 13 19 3 0
BITMAP
01c0
0300
0600
0000
f878
7030
3020
3040
3880
1900
1b00
0e00
0c00
0c00
0c00
1800
1800
1800
7e00
ENDCHAR
STARTCHAR Tcedilla
ENCODING 222
SWIDTH 663 0
DWIDTH 13 0
BBX 13 20 3 -5
BITMAP
fff8
c708
8618
0600
0600
0600
0e00
0c00
0c00
0c00
0c00
1c00
1800
1800
7e00
0300
0200
0100
0100
0600
ENDCHAR
STARTCHAR ssharp
ENCODING 223
SWIDTH 603 0
DWIDTH 12 0
BBX 11 20 1 -4
BITMAP
0780
0cc0
08c0
18c0
1880
1900
1a00
3600
3700
3380
31c0
30e0
6060
6460
6cc0
6780
6000
c000
c000
c000
ENDCHAR
STARTCHAR racute
ENCODING 224
SWIDTH 470 0
DWIDTH 9 0
BBX 9 15 2 0
BITMAP
0380
0600
0c00
0000
f180
3700
3c00
6800
7000
6000
6000
6000
c000
c000
c000
ENDCHAR
STARTCHAR aacute
ENCODING 225
SWIDTH 608 0
DWIDTH 12 0
BBX 11 15 1 0
BITMAP
00e0
0180
0300
0000
07e0
0860
1060
20c0
60c0
60c0
c1c0
c2c0
c580
cd80
71e0
ENDCHAR
STARTCHAR acircumflex
ENCODING 226
SWIDTH 608 0
DWIDTH 12 0
BBX 11 15 1 0
BITMAP
01c0
0340
0420
0000
07e0
0860
1060
20c0
60c0
60c0
c1c0
c2c0
c580
cd80
71e0
ENDCHAR
STARTCHAR abreve
ENCODING 227
SWIDTH 608 0
DWIDTH 12 0
BBX 12 15 1 0
BITMAP
0410
0660
03c0
0000
07e0
0860
1060
20c0
60c0
60c0
c1c0
c2c0
c580
cd80
71e0
ENDCHAR
STARTCHAR adiaeresis
ENCODING 228
SWIDTH 608 0
DWIDTH 12 0
BBX 11 13 1 0
BITMAP
0660
0000
07e0
0860
1060
20c0
60c0
60c0
c1c0
c2c0
c580
cd80
71e0
ENDCHAR
STARTCHAR lacute
ENCODING 229
SWIDTH 289 0
DWIDTH 6 0
BBX 8 19 2 0
BITMAP
07
0c
18
00
78
18
10
30
30
30
30
20
60
60
60
60
40
c0
f0
ENDCHAR
STARTCHAR cacute
ENCODING 230
SWIDTH 487 0
DWIDTH 10 0
BBX 11 15 2 0
BITMAP
00e0
0180
0300
0000
0f80
1180
2080
6000
4000
c000
c000
c000
c000
6300
3c00
ENDCHAR
STARTCHAR ccedilla
ENCODING 231
SWIDTH 487 0
DWIDTH 10 0
BBX 9 15 2 -4
BITMAP
0f80
1180
2080
6000
4000
c000
c000
c000
c000
6300
3c00
2000
1000
1000
6000
ENDCHAR
STARTCHAR ccaron
ENCODING 232
SWIDTH 487 0
DWIDTH 10 0
BBX 10 15 2 0
BITMAP
0840
0580
0700
0000
0f80
1180
2080
6000
4000
c000
c000
c000
c000
6300
3c00
ENDCHAR
STARTCHAR eacute
ENCODING 233
SWIDTH 518 0
DWIDTH 10 0
BBX 10 15 2 0
BITMAP
01c0
0300
0600
0000
0f00
1180
2180
6100
4300
c600
f800
c000
c180
6300
3c00
ENDCHAR
STARTCHAR eogonek
ENCODING 234
SWIDTH 518 0
DWIDTH 10 0
BBX 9 14 2 -3
BITMAP
0f00
1180
2180
6100
4300
c600
f800
c000
c180
6300
3c00
0c00
1000
1c00
ENDCHAR
STARTCHAR ediaeresis
ENCODING 235
SWIDTH 518 0
DWIDTH 10 0
BBX 10 13 2 0
BITMAP
0cc0
0000
0f00
1180
2180
6100
4300
c600
f800
c000
c180
6300
3c00
ENDCHAR
STARTCHAR ecaron
ENCODING 236
SWIDTH 518 0
DWIDTH 10 0
BBX 10 15 2 0
BITMAP
0840
0580
0700
0000
0f00
1180
2180
6100
4300
c600
f800
c000
c180
6300
3c00
ENDCHAR
STARTCHAR iacute
ENCODING 237
SWIDTH 289 0
DWIDTH 6 0
BBX 7 15 2 0
BITMAP
0e
18
30
00
f0
30
20
60
60
60
60
40
c0
c0
f0
ENDCHAR
STARTCHAR icircumflex
ENCODING 238
SWIDTH 289 0
DWIDTH 6 0
BBX 7 15 2 0
BITMAP
1c
34
42
00
f0
30
20
60
60
60
60
40
c0
c0
f0
ENDCHAR
STARTCHAR dcaron
ENCODING 239
SWIDTH 874 0
DWIDTH 17 0
BBX 17 17 1 0
BITMAP
000380
000380
00f100
003300
006600
006400
07e000
086000
106000
20c000
60c000
60c000
c1c000
c2c000
c58000
cd8000
71e000
ENDCHAR
STARTCHAR dstroke
ENCODING 240
SWIDTH 771 0
DWIDTH 15 0
BBX 15 15 1 0
BITMAP
00f0
0030
03fe
0060
07e0
0860
1060
20c0
60c0
60c0
c1c0
c2c0
c580
cd80
71e0
ENDCHAR
STARTCHAR nacute
ENCODING 241
SWIDTH 631 0
DWIDTH 13 0
BBX 11 15 2 0
BITMAP
01c0
0300
0600
0000
f1c0
3260
3460
2840
70c0
60c0
60c0
60c0
4080
c180
c1e0
ENDCHAR
STARTCHAR ncaron
ENCODING 242
SWIDTH 631 0
DWIDTH 13 0
BBX 11 15 2 0
BITMAP
1080
0b00
0e00
0000
f1c0
3260
3460
2840
70c0
60c0
60c0
60c0
4080
c180
c1e0
ENDCHAR
STARTCHAR oacute
ENCODING 243
SWIDTH 560 0
DWIDTH 11 0
BBX 10 15 2 0
BITMAP
01c0
0300
0600
0000
0f00
1980
30c0
60c0
60c0
c0c0
c180
c180
c300
e600
7c00
ENDCHAR
STARTCHAR ocircumflex
ENCODING 244
SWIDTH 560 0
DWIDTH 11 0
BBX 10 15 2 0
BITMAP
0380
0680
0840
0000
0f00
1980
30c0
60c0
60c0
c0c0
c180
c180
c300
e600
7c00
ENDCHAR
STARTCHAR odoubleacute
ENCODING 245
SWIDTH 560 0
DWIDTH 11 0
BBX 12 15 2 0
BITMAP
01f0
0340
0580
0000
0f00
1980
30c0
60c0
60c0
c0c0
c180
c180
c300
e600
7c00
ENDCHAR
STARTCHAR odiaeresis
ENCODING 246
SWIDTH 560 0
DWIDTH 11 0
BBX 10 13 2 0
BITMAP
0cc0
0000
0f00
1980
30c0
60c0
60c0
c0c0
c180
c180
c300
e600
7c00
ENDCHAR
STARTCHAR division
ENCODING 247
SWIDTH 608 0
DWIDTH 12 0
BBX 12 11 1 0
BITMAP
0300
0000
0000
0000
0000
fff0
0000
0000
0000
0000
0c00
ENDCHAR
STARTCHAR rcaron
ENCODING 248
SWIDTH 470 0
DWIDTH 9 0
BBX 9 15 2 0
BITMAP
2100
1600
1c00
0000
f180
3700
3c00
6800
7000
6000
6000
6000
c000
c000
c000
ENDCHAR
STARTCHAR uring
ENCODING 249
SWIDTH 630 0
DWIDTH 13 0
BBX 11 15 2 0
BITMAP
0e00
0a00
0e00
0000
f1e0
3060
2060
60c0
60c0
60c0
61c0
42c0
c780
cd80
71e0
ENDCHAR
STARTCHAR uacute
ENCODING 250
SWIDTH 630 0
DWIDTH 13 0
BBX 11 15 2 0
BITMAP
00e0
0180
0300
0000
f1e0
3060
2060
60c0
60c0
60c0
61c0
42c0
c780
cd80
71e0
ENDCHAR
STARTCHAR udoubleacute
ENCODING 251
SWIDTH 630 0
DWIDTH 13 0
BBX 11 15 2 0
BITMAP
03e0
0680
0b00
0000
f1e0
3060
2060
60c0
60c0
60c0
61c0
42c0
c780
cd80
71e0
ENDCHAR
STARTCHAR udiaeresis
ENCODING 252
SWIDTH 630 0
DWIDTH 13 0
BBX 11 13 2 0
BITMAP
0660
0000
f1e0
3060
2060
60c0
60c0
60c0
61c0
42c0
c780
cd80
71e0
ENDCHAR
STARTCHAR yacute
ENCODING 253
SWIDTH 558 0
DWIDTH 11 0
BBX 13 19 0 -4
BITMAP
0070
00c0
0180
0000
7830
1818
1810
0c20
0c20
0c40
0c80
0500
0500
0600
0400
0800
1000
3000
e000
ENDCHAR
STARTCHAR tcedilla
ENCODING 254
SWIDTH 355 0
DWIDTH 7 0
BBX 6 19 2 -5
BITMAP
30
30
30
fc
60
60
60
60
60
c0
c0
c0
c0
70
30
20
10
10
60
ENDCHAR
STARTCHAR abovedot
ENCODING 255
SWIDTH 560 0
DWIDTH 11 0
BBX 2 1 7 14
BITMAP
c0
ENDCHAR
ENDFONT
